name new_emg_signals
nRows=30
nColumns=7
 
endheader
time	RGLTMED	RRF	RADDLONG	RST	RTA	RGM
1.0000000000001563	0.9550891298050612	0.8939124594492497	0.9170402226827408	0.8442005250000517	0.9577726433925032	0.9618233728868648
1.0100000000001614	0.9523020583642852	0.888922084637049	0.912707925857107	0.8440044816844714	0.9544647970968057	0.9621327411616104
1.0200000000001594	0.9495231782816292	0.8839427201456176	0.9083691662175052	0.8438995653672827	0.9510915559189784	0.9624468690847892
1.030000000000161	0.9467606381835943	0.8789833654436386	0.904031603821129	0.8438874464185158	0.9476581709520772	0.9627698831577244
1.0400000000001626	0.944022309686988	0.8740527905270676	0.8997026866770442	0.8439693894204978	0.944169646417709	0.9631056324232627
1.0500000000001641	0.9413157741032552	0.8691595212232541	0.8953896439868917	0.8441462577233432	0.9406307461592166	0.9634576811806308
1.0600000000001657	0.938648309940371	0.8643118250898112	0.8910994798559352	0.8444185189782891	0.9370460005822928	0.9638293025291912
1.0700000000001673	0.93602688123054	0.8595176979434286	0.886838967479475	0.844786251637339	0.9334197139969294	0.9642234727672347
1.0800000000001688	0.9334581267093645	0.8547848510530942	0.8826146438088841	0.8452491524052326	0.9297559723122116	0.9646428666693484
1.0900000000001704	0.930948349869756	0.8501206990306971	0.8784328047004409	0.8458065446273834	0.926058651034394	0.9650898536631118
1.100000000000172	0.9285035099119172	0.845532348449553	0.8742995005489558	0.8464573875940999	0.9223314235190164	0.96556649492329
1.1100000000001735	0.9261292136077632	0.8410265872186734	0.8702205324069232	0.8472002867387856	0.9185777694306466	0.966074541399099
1.1200000000001715	0.9238307080965138	0.8366098747374373	0.8662014485883298	0.8480335047045888	0.9148009833659536	0.966615432787183
1.1300000000001766	0.9216128746251624	0.8322883328524653	0.8622475417545025	0.8489549732514646	0.9110041835968812	0.9671902974595904
1.1400000000001782	0.9194802232457232	0.8280677376354517	0.8583638464767532	0.8499623059727334	0.907190320890368	0.9677999533528664
1.1500000000001798	0.917436888478426	0.8239535119982512	0.8545551372682483	0.8510528117878224	0.9033621873592892	0.9684449098207912
1.1600000000001813	0.9154866259478306	0.8199507191588494	0.8508259270755102	0.8522235091754069	0.8995224252991136	0.9691253704504492
1.1700000000001864	0.9136328099961905	0.8160640569691266	0.8471804662179853	0.8534711411090946	0.8956735359658952	0.9698412368378924
1.1800000000001845	0.9118784322763264	0.812297853112521	0.8436227417624227	0.8547921906564262	0.8918178882552252	0.9705921133169289
1.190000000000186	0.9102261013242998	0.8086560611769102	0.8401564773176111	0.8561828972003602	0.88795772724738	0.9713773126314342
1.2000000000001876	0.9086780431111962	0.8051422576056864	0.8367851332336158	0.8576392732410213	0.8840951825907423	0.9721958625386624
1.2100000000001891	0.9072361025710854	0.8017596395283366	0.8335119071896357	0.8591571217341362	0.8802322767013804	0.973046513327891
1.2200000000001907	0.9059017461010428	0.7985110234705248	0.8303397351547903	0.8607320539208407	0.8763709327615015	0.9739277462356922
1.2300000000001923	0.9046760650265758	0.7953988449428064	0.827271292707703	0.8623595076021696	0.8725129825019586	0.9748377827357052
1.2400000000001974	0.9035597800235968	0.7924251589057346	0.8243089967028916	0.8640347658095465	0.8686601737551577	0.9757745946778124
1.2500000000001954	0.9025532464857716	0.7895916411075231	0.8214550072754715	0.8657529758208657	0.8648141777647974	0.9767359152485664
1.2600000000002005	0.901656460823446	0.7868995902882695	0.8187112301785129	0.867509168469565	0.8609765962381849	0.9777192507219185
1.270000000000202	0.9008690676778468	0.7843499312421893	0.8160793194500331	0.8692982776917837	0.8571489681263397	0.9787218929666364
1.2800000000002	0.9001903680317994	0.7819432187268782	0.8135606804089358	0.871115160254031	0.8533327761182049	0.9797409326739748
1.2900000000002017	0.8996193281955501	0.7796796422057799	0.8111564729807804	0.8729546156014607	0.8495294528371061	0.9807732732661176
